<mxfile host="app.diagrams.net" agent="Mozilla/5.0 (X11; Ubuntu; Linux x86_64; rv:128.0) Gecko/20100101 Firefox/128.0" version="24.7.5">
  <diagram name="Seite-1" id="8zmR4mmEL4HT2iXYoOuu">
    <mxGraphModel dx="1434" dy="778" grid="1" gridSize="10" guides="1" tooltips="1" connect="1" arrows="1" fold="1" page="1" pageScale="1" pageWidth="1169" pageHeight="827" math="0" shadow="0">
      <root>
        <mxCell id="0" />
        <mxCell id="1" parent="0" />
        <mxCell id="9a1kAwWei6lTwyVP2yFh-1" value="" style="rounded=0;whiteSpace=wrap;html=1;fontSize=30;fillColor=#bac8d3;strokeColor=#23445d;" vertex="1" parent="1">
          <mxGeometry x="480" y="120" width="120" height="40" as="geometry" />
        </mxCell>
        <mxCell id="9a1kAwWei6lTwyVP2yFh-2" value="42" style="rounded=0;whiteSpace=wrap;html=1;fontSize=30;fillColor=#d5e8d4;strokeColor=#82b366;gradientColor=#97d077;" vertex="1" parent="1">
          <mxGeometry x="480" y="160" width="120" height="40" as="geometry" />
        </mxCell>
        <mxCell id="9a1kAwWei6lTwyVP2yFh-3" value="" style="rounded=0;whiteSpace=wrap;html=1;fontSize=30;fillColor=#bac8d3;strokeColor=#23445d;" vertex="1" parent="1">
          <mxGeometry x="480" y="200" width="120" height="40" as="geometry" />
        </mxCell>
        <mxCell id="9a1kAwWei6lTwyVP2yFh-4" value="3.7" style="rounded=0;whiteSpace=wrap;html=1;fontSize=30;fillColor=#d5e8d4;strokeColor=#82b366;gradientColor=#97d077;" vertex="1" parent="1">
          <mxGeometry x="480" y="240" width="120" height="40" as="geometry" />
        </mxCell>
        <mxCell id="9a1kAwWei6lTwyVP2yFh-5" value="" style="rounded=0;whiteSpace=wrap;html=1;fontSize=30;fillColor=#bac8d3;strokeColor=#23445d;" vertex="1" parent="1">
          <mxGeometry x="480" y="280" width="120" height="40" as="geometry" />
        </mxCell>
        <mxCell id="9a1kAwWei6lTwyVP2yFh-7" style="edgeStyle=orthogonalEdgeStyle;rounded=0;orthogonalLoop=1;jettySize=auto;html=1;entryX=0;entryY=0.5;entryDx=0;entryDy=0;" edge="1" parent="1" source="9a1kAwWei6lTwyVP2yFh-6" target="9a1kAwWei6lTwyVP2yFh-2">
          <mxGeometry relative="1" as="geometry" />
        </mxCell>
        <mxCell id="9a1kAwWei6lTwyVP2yFh-6" value="&lt;b&gt;x&lt;/b&gt;" style="text;html=1;align=center;verticalAlign=middle;whiteSpace=wrap;rounded=0;fontSize=30;labelBorderColor=none;fillColor=#e1d5e7;strokeColor=#9673a6;" vertex="1" parent="1">
          <mxGeometry x="280" y="160" width="40" height="40" as="geometry" />
        </mxCell>
        <mxCell id="9a1kAwWei6lTwyVP2yFh-9" style="edgeStyle=orthogonalEdgeStyle;rounded=0;orthogonalLoop=1;jettySize=auto;html=1;entryX=0;entryY=0.5;entryDx=0;entryDy=0;" edge="1" parent="1" source="9a1kAwWei6lTwyVP2yFh-8" target="9a1kAwWei6lTwyVP2yFh-4">
          <mxGeometry relative="1" as="geometry" />
        </mxCell>
        <mxCell id="9a1kAwWei6lTwyVP2yFh-8" value="&lt;b&gt;y&lt;/b&gt;" style="text;html=1;align=center;verticalAlign=middle;whiteSpace=wrap;rounded=0;fontSize=30;labelBorderColor=none;fillColor=#e1d5e7;strokeColor=#9673a6;" vertex="1" parent="1">
          <mxGeometry x="280" y="240" width="40" height="40" as="geometry" />
        </mxCell>
        <mxCell id="9a1kAwWei6lTwyVP2yFh-10" value="" style="rounded=0;whiteSpace=wrap;html=1;fontSize=30;fillColor=#bac8d3;strokeColor=#23445d;" vertex="1" parent="1">
          <mxGeometry x="480" y="400" width="120" height="40" as="geometry" />
        </mxCell>
        <mxCell id="9a1kAwWei6lTwyVP2yFh-11" value="42" style="rounded=0;whiteSpace=wrap;html=1;fontSize=30;fillColor=#f8cecc;strokeColor=#b85450;" vertex="1" parent="1">
          <mxGeometry x="480" y="440" width="120" height="40" as="geometry" />
        </mxCell>
        <mxCell id="9a1kAwWei6lTwyVP2yFh-12" value="" style="rounded=0;whiteSpace=wrap;html=1;fontSize=30;fillColor=#bac8d3;strokeColor=#23445d;" vertex="1" parent="1">
          <mxGeometry x="480" y="480" width="120" height="40" as="geometry" />
        </mxCell>
        <mxCell id="9a1kAwWei6lTwyVP2yFh-13" value="3.7" style="rounded=0;whiteSpace=wrap;html=1;fontSize=30;fillColor=#d5e8d4;strokeColor=#82b366;gradientColor=#97d077;" vertex="1" parent="1">
          <mxGeometry x="480" y="520" width="120" height="40" as="geometry" />
        </mxCell>
        <mxCell id="9a1kAwWei6lTwyVP2yFh-14" value="" style="rounded=0;whiteSpace=wrap;html=1;fontSize=30;fillColor=#bac8d3;strokeColor=#23445d;" vertex="1" parent="1">
          <mxGeometry x="480" y="560" width="120" height="40" as="geometry" />
        </mxCell>
        <mxCell id="9a1kAwWei6lTwyVP2yFh-15" style="edgeStyle=orthogonalEdgeStyle;rounded=0;orthogonalLoop=1;jettySize=auto;html=1;entryX=0;entryY=0.25;entryDx=0;entryDy=0;" edge="1" parent="1" source="9a1kAwWei6lTwyVP2yFh-16" target="9a1kAwWei6lTwyVP2yFh-13">
          <mxGeometry relative="1" as="geometry" />
        </mxCell>
        <mxCell id="9a1kAwWei6lTwyVP2yFh-16" value="&lt;b&gt;x&lt;/b&gt;" style="text;html=1;align=center;verticalAlign=middle;whiteSpace=wrap;rounded=0;fontSize=30;labelBorderColor=none;strokeColor=#9673a6;fillColor=#e1d5e7;" vertex="1" parent="1">
          <mxGeometry x="280" y="440" width="40" height="40" as="geometry" />
        </mxCell>
        <mxCell id="9a1kAwWei6lTwyVP2yFh-17" style="edgeStyle=orthogonalEdgeStyle;rounded=0;orthogonalLoop=1;jettySize=auto;html=1;entryX=0;entryY=0.5;entryDx=0;entryDy=0;" edge="1" parent="1" source="9a1kAwWei6lTwyVP2yFh-18" target="9a1kAwWei6lTwyVP2yFh-13">
          <mxGeometry relative="1" as="geometry" />
        </mxCell>
        <mxCell id="9a1kAwWei6lTwyVP2yFh-18" value="&lt;b&gt;y&lt;/b&gt;" style="text;html=1;align=center;verticalAlign=middle;whiteSpace=wrap;rounded=0;fontSize=30;labelBorderColor=none;strokeColor=#9673a6;fillColor=#e1d5e7;" vertex="1" parent="1">
          <mxGeometry x="280" y="520" width="40" height="40" as="geometry" />
        </mxCell>
        <mxCell id="9a1kAwWei6lTwyVP2yFh-19" value="&lt;font style=&quot;font-size: 18px;&quot;&gt;After Binding x to y:&lt;/font&gt;" style="text;html=1;align=center;verticalAlign=middle;whiteSpace=wrap;rounded=0;" vertex="1" parent="1">
          <mxGeometry x="300" y="350" width="270" height="30" as="geometry" />
        </mxCell>
      </root>
    </mxGraphModel>
  </diagram>
</mxfile>
